<svg width="24" height="25" viewBox="0 0 24 25" fill="none" xmlns="http://www.w3.org/2000/svg">
<g id="Icons-1">
<rect width="24" height="24" transform="translate(0 0.631348)" fill="white" fill-opacity="0.01"/>
<path id="Vector" fill-rule="evenodd" clip-rule="evenodd" d="M9.00568 11.6264L13.5987 7.0334C13.6903 6.93994 13.7995 6.86557 13.92 6.81458C14.0405 6.7636 14.1699 6.737 14.3007 6.73634C14.4316 6.73568 14.5613 6.76096 14.6823 6.81073C14.8033 6.8605 14.9133 6.93377 15.0058 7.02629C15.0983 7.11882 15.1716 7.22877 15.2213 7.34978C15.2711 7.4708 15.2964 7.60048 15.2957 7.73133C15.2951 7.86218 15.2685 7.9916 15.2175 8.1121C15.1665 8.23261 15.0921 8.34181 14.9987 8.4334L11.0987 12.3334L14.9987 16.2334C15.1812 16.4197 15.2829 16.6705 15.2816 16.9313C15.2803 17.1922 15.1761 17.4419 14.9916 17.6264C14.8072 17.8108 14.5574 17.915 14.2966 17.9163C14.0358 17.9176 13.785 17.816 13.5987 17.6334L9.00568 13.0414C8.81821 12.8539 8.71289 12.5996 8.71289 12.3344C8.71289 12.0692 8.81821 11.8149 9.00568 11.6274V11.6264Z" fill="#42526E"/>
</g>
</svg>
