<svg width="17" height="21" viewBox="0 0 17 21" fill="none" xmlns="http://www.w3.org/2000/svg">
<g id="Black">
<path id="Vector" d="M0.678125 1.03437C0.410938 1.12812 0.279688 1.23125 0.134375 1.44687L0.0078125 1.64375V11.0047V20.3656L0.148438 20.5719C0.228125 20.6797 0.3875 20.825 0.5 20.8906L0.710938 21.0078H8H15.2891L15.5 20.8906C15.6125 20.825 15.7719 20.6797 15.8516 20.5719L15.9922 20.3656L16.0063 13.5453L16.0156 6.72031L15.9172 6.51406C15.8328 6.34062 15.3313 5.90469 12.7156 3.73906C11.0141 2.32812 9.54219 1.13281 9.45312 1.08125C9.29375 0.996874 9.12031 0.992188 5.07031 0.982811C1.63438 0.973436 0.81875 0.982811 0.678125 1.03437ZM8.00938 5.20625L8.02344 7.38125L8.16406 7.58281C8.24375 7.69062 8.39844 7.83125 8.51094 7.89219L8.71719 8H11.3609H14V13.4844V18.9688H8H2V11V3.03125H5H7.99531L8.00938 5.20625ZM11.1406 5.1125C11.6703 5.54844 12.1203 5.92344 12.1438 5.94219C12.1719 5.96562 11.7125 5.98437 11.1031 5.98437H10.0156V5.08906C10.0156 4.24062 10.0203 4.19375 10.1 4.25469C10.1422 4.29219 10.6109 4.67656 11.1406 5.1125Z" fill="#42526E"/>
<path id="Vector_2" d="M4.55431 11.0799C3.8465 11.4502 3.78087 12.3924 4.42775 12.8518L4.634 12.9924L5.92306 13.0064L7.21681 13.0205L7.46056 12.8986C7.8215 12.7252 7.9715 12.4861 7.99025 12.0502C8.009 11.7408 7.99494 11.6799 7.88244 11.4877C7.80744 11.3611 7.66681 11.2205 7.54025 11.1361L7.32462 11.0002H6.01212C4.90587 11.0049 4.6715 11.0143 4.55431 11.0799Z" fill="#42526E"/>
<path id="Vector_3" d="M4.62491 15.0357C3.96397 15.3029 3.76241 16.231 4.26397 16.7045C4.59209 17.0185 4.37647 16.9998 7.99991 16.9998C11.178 16.9998 11.2905 16.9951 11.464 16.906C12.1483 16.5592 12.2046 15.5982 11.5718 15.1482L11.3655 15.0076L8.05616 14.9982C5.94209 14.9935 4.69991 15.0076 4.62491 15.0357Z" fill="#42526E"/>
</g>
</svg>
