<svg width="24" height="25" viewBox="0 0 24 25" fill="none" xmlns="http://www.w3.org/2000/svg">
<g id="groups">
<mask id="mask0_884_2127" style="mask-type:alpha" maskUnits="userSpaceOnUse" x="0" y="0" width="24" height="25">
<rect id="Bounding box" y="0.103516" width="24" height="24" fill="#D9D9D9"/>
</mask>
<g mask="url(#mask0_884_2127)">
<path id="groups_2" d="M0 18.1035V16.5285C0 15.8118 0.366667 15.2285 1.1 14.7785C1.83333 14.3285 2.8 14.1035 4 14.1035C4.21667 14.1035 4.425 14.1077 4.625 14.116C4.825 14.1243 5.01667 14.1452 5.2 14.1785C4.96667 14.5285 4.79167 14.8952 4.675 15.2785C4.55833 15.6618 4.5 16.0618 4.5 16.4785V18.1035H0ZM6 18.1035V16.4785C6 15.9452 6.14583 15.4577 6.4375 15.016C6.72917 14.5743 7.14167 14.1868 7.675 13.8535C8.20833 13.5202 8.84583 13.2702 9.5875 13.1035C10.3292 12.9368 11.1333 12.8535 12 12.8535C12.8833 12.8535 13.6958 12.9368 14.4375 13.1035C15.1792 13.2702 15.8167 13.5202 16.35 13.8535C16.8833 14.1868 17.2917 14.5743 17.575 15.016C17.8583 15.4577 18 15.9452 18 16.4785V18.1035H6ZM19.5 18.1035V16.4785C19.5 16.0452 19.4458 15.6368 19.3375 15.2535C19.2292 14.8702 19.0667 14.5118 18.85 14.1785C19.0333 14.1452 19.2208 14.1243 19.4125 14.116C19.6042 14.1077 19.8 14.1035 20 14.1035C21.2 14.1035 22.1667 14.3243 22.9 14.766C23.6333 15.2077 24 15.7952 24 16.5285V18.1035H19.5ZM8.125 16.1035H15.9C15.7333 15.7702 15.2708 15.4785 14.5125 15.2285C13.7542 14.9785 12.9167 14.8535 12 14.8535C11.0833 14.8535 10.2458 14.9785 9.4875 15.2285C8.72917 15.4785 8.275 15.7702 8.125 16.1035ZM4 13.1035C3.45 13.1035 2.97917 12.9077 2.5875 12.516C2.19583 12.1243 2 11.6535 2 11.1035C2 10.5368 2.19583 10.0618 2.5875 9.67852C2.97917 9.29518 3.45 9.10352 4 9.10352C4.56667 9.10352 5.04167 9.29518 5.425 9.67852C5.80833 10.0618 6 10.5368 6 11.1035C6 11.6535 5.80833 12.1243 5.425 12.516C5.04167 12.9077 4.56667 13.1035 4 13.1035ZM20 13.1035C19.45 13.1035 18.9792 12.9077 18.5875 12.516C18.1958 12.1243 18 11.6535 18 11.1035C18 10.5368 18.1958 10.0618 18.5875 9.67852C18.9792 9.29518 19.45 9.10352 20 9.10352C20.5667 9.10352 21.0417 9.29518 21.425 9.67852C21.8083 10.0618 22 10.5368 22 11.1035C22 11.6535 21.8083 12.1243 21.425 12.516C21.0417 12.9077 20.5667 13.1035 20 13.1035ZM12 12.1035C11.1667 12.1035 10.4583 11.8118 9.875 11.2285C9.29167 10.6452 9 9.93685 9 9.10352C9 8.25352 9.29167 7.54102 9.875 6.96602C10.4583 6.39102 11.1667 6.10352 12 6.10352C12.85 6.10352 13.5625 6.39102 14.1375 6.96602C14.7125 7.54102 15 8.25352 15 9.10352C15 9.93685 14.7125 10.6452 14.1375 11.2285C13.5625 11.8118 12.85 12.1035 12 12.1035ZM12 10.1035C12.2833 10.1035 12.5208 10.0077 12.7125 9.81602C12.9042 9.62435 13 9.38685 13 9.10352C13 8.82018 12.9042 8.58268 12.7125 8.39102C12.5208 8.19935 12.2833 8.10352 12 8.10352C11.7167 8.10352 11.4792 8.19935 11.2875 8.39102C11.0958 8.58268 11 8.82018 11 9.10352C11 9.38685 11.0958 9.62435 11.2875 9.81602C11.4792 10.0077 11.7167 10.1035 12 10.1035Z" fill="#344563"/>
</g>
</g>
</svg>
