<svg width="24" height="25" viewBox="0 0 24 25" fill="none" xmlns="http://www.w3.org/2000/svg">
<g id="overview">
<mask id="mask0_306_675" style="mask-type:alpha" maskUnits="userSpaceOnUse" x="0" y="0" width="24" height="25">
<rect id="Bounding box" y="0.103516" width="24" height="24" fill="#D9D9D9"/>
</mask>
<g mask="url(#mask0_306_675)">
<path id="overview_2" d="M19.675 20.4785L20.375 19.7785L18.5 17.9035V15.1035H17.5V18.3035L19.675 20.4785ZM5 21.1035C4.45 21.1035 3.97917 20.9077 3.5875 20.516C3.19583 20.1243 3 19.6535 3 19.1035V5.10352C3 4.55352 3.19583 4.08268 3.5875 3.69102C3.97917 3.29935 4.45 3.10352 5 3.10352H19C19.55 3.10352 20.0208 3.29935 20.4125 3.69102C20.8042 4.08268 21 4.55352 21 5.10352V11.8035C20.6833 11.6535 20.3583 11.5243 20.025 11.416C19.6917 11.3077 19.35 11.2285 19 11.1785V5.10352H5V19.1035H11.05C11.1 19.4702 11.1792 19.8202 11.2875 20.1535C11.3958 20.4869 11.525 20.8035 11.675 21.1035H5ZM5 19.1035V5.10352V11.1785V11.1035V19.1035ZM7 17.1035H11.075C11.125 16.7535 11.2042 16.4118 11.3125 16.0785C11.4208 15.7452 11.5417 15.4202 11.675 15.1035H7V17.1035ZM7 13.1035H13.1C13.6333 12.6035 14.2292 12.1868 14.8875 11.8535C15.5458 11.5202 16.25 11.2952 17 11.1785V11.1035H7V13.1035ZM7 9.10352H17V7.10352H7V9.10352ZM18 23.1035C16.6167 23.1035 15.4375 22.616 14.4625 21.641C13.4875 20.666 13 19.4868 13 18.1035C13 16.7202 13.4875 15.541 14.4625 14.566C15.4375 13.591 16.6167 13.1035 18 13.1035C19.3833 13.1035 20.5625 13.591 21.5375 14.566C22.5125 15.541 23 16.7202 23 18.1035C23 19.4868 22.5125 20.666 21.5375 21.641C20.5625 22.616 19.3833 23.1035 18 23.1035Z" fill="#344563"/>
</g>
</g>
</svg>
