<svg width="24" height="24" viewBox="0 0 24 24" fill="none" xmlns="http://www.w3.org/2000/svg">
<g id="search">
<rect width="24" height="24" fill="white" fill-opacity="0.01"/>
<path id="Vector" fill-rule="evenodd" clip-rule="evenodd" d="M16.4358 15.0849L20.3758 19.0949C20.5523 19.2857 20.6476 19.5377 20.6414 19.7975C20.6353 20.0573 20.5283 20.3046 20.3431 20.4869C20.1578 20.6691 19.9088 20.7721 19.6489 20.774C19.389 20.7759 19.1386 20.6765 18.9508 20.4969L15.0128 16.4909C13.4933 17.6356 11.5956 18.16 9.70403 17.9581C7.81242 17.7562 6.06821 16.8431 4.82457 15.4035C3.58094 13.9639 2.93081 12.1056 3.00584 10.2047C3.08087 8.30382 3.87544 6.50248 5.22867 5.16542C6.5819 3.82836 8.39266 3.05549 10.2943 3.00331C12.1959 2.95114 14.0464 3.62355 15.4709 4.88439C16.8954 6.14524 17.7875 7.9003 17.9667 9.7942C18.1458 11.6881 17.5986 13.5793 16.4358 15.0849ZM10.4998 15.9999C11.9584 15.9999 13.3574 15.4204 14.3888 14.389C15.4203 13.3575 15.9998 11.9586 15.9998 10.4999C15.9998 9.04122 15.4203 7.64227 14.3888 6.61082C13.3574 5.57937 11.9584 4.99991 10.4998 4.99991C9.04106 4.99991 7.64212 5.57937 6.61067 6.61082C5.57922 7.64227 4.99976 9.04122 4.99976 10.4999C4.99976 11.9586 5.57922 13.3575 6.61067 14.389C7.64212 15.4204 9.04106 15.9999 10.4998 15.9999Z" fill="#42526E"/>
</g>
</svg>
