<svg width="24" height="25" viewBox="0 0 24 25" fill="none" xmlns="http://www.w3.org/2000/svg">
<g id="settings">
<rect width="24" height="24" transform="translate(0 0.103516)" fill="white" fill-opacity="0.01"/>
<path id="Vector" fill-rule="evenodd" clip-rule="evenodd" d="M11.7006 16.8035C11.0378 16.8129 10.3798 16.6904 9.76476 16.4433C9.14973 16.1961 8.58996 15.8292 8.11797 15.3639C7.64599 14.8985 7.27119 14.344 7.01538 13.7325C6.75956 13.121 6.62783 12.4648 6.62783 11.802C6.62783 11.1392 6.75956 10.483 7.01538 9.8715C7.27119 9.26003 7.64599 8.7055 8.11797 8.24014C8.58996 7.77478 9.14973 7.40787 9.76476 7.16072C10.3798 6.91358 11.0378 6.79114 11.7006 6.80051C13.0272 6.80051 14.2994 7.3275 15.2375 8.26556C16.1756 9.20362 16.7026 10.4759 16.7026 11.8025C16.7026 13.1291 16.1756 14.4014 15.2375 15.3395C14.2994 16.2775 13.0272 16.8045 11.7006 16.8045V16.8035ZM20.0686 13.6875C19.6759 13.5524 19.3353 13.2982 19.094 12.9603C18.8527 12.6225 18.7229 12.2177 18.7226 11.8025C18.7226 10.9265 19.2856 10.1895 20.0676 9.91751C20.183 9.87947 20.2797 9.79908 20.3381 9.69255C20.3966 9.58602 20.4125 9.46129 20.3826 9.34351C20.1854 8.64783 19.9047 7.97862 19.5466 7.35051C19.4875 7.251 19.3943 7.17635 19.2842 7.14048C19.1742 7.1046 19.0549 7.10994 18.9486 7.15551C18.5386 7.32129 18.0859 7.34936 17.6586 7.23551C17.3231 7.14586 17.0169 6.9699 16.7706 6.72515C16.5243 6.4804 16.3464 6.1754 16.2546 5.84051C16.1379 5.41145 16.1645 4.956 16.3306 4.54351C16.3755 4.43711 16.3805 4.31803 16.3444 4.20828C16.3084 4.09853 16.2338 4.00554 16.1346 3.94651C15.5115 3.59341 14.8485 3.3161 14.1596 3.12051C14.0419 3.09031 13.9172 3.10594 13.8106 3.16424C13.704 3.22253 13.6236 3.31914 13.5856 3.43451C13.4505 3.82712 13.1963 4.1678 12.8584 4.40908C12.5205 4.65036 12.1157 4.7802 11.7006 4.78051C11.2856 4.78021 10.8811 4.65048 10.5434 4.40938C10.2057 4.16829 9.9516 3.82785 9.81655 3.43551C9.77811 3.32016 9.69749 3.2236 9.59086 3.16519C9.48423 3.10677 9.35946 3.09081 9.24155 3.12051C8.53355 3.32051 7.86255 3.60551 7.23755 3.96251C7.14016 4.01957 7.06656 4.10978 7.0302 4.21665C6.99385 4.32351 6.99717 4.43989 7.03955 4.54451C7.18882 4.90832 7.22763 5.30804 7.15116 5.69377C7.07468 6.0795 6.88629 6.43417 6.60951 6.71352C6.33273 6.99286 5.97981 7.1845 5.59479 7.26453C5.20978 7.34455 4.80972 7.30942 4.44455 7.16351C4.33839 7.11908 4.21977 7.11445 4.11047 7.15045C4.00117 7.18646 3.90852 7.26069 3.84955 7.35951C3.49233 7.98807 3.21263 8.65762 3.01655 9.35351C2.98686 9.4701 3.00204 9.5936 3.05908 9.69953C3.11612 9.80547 3.21087 9.88612 3.32455 9.92551C3.71158 10.064 4.04639 10.3186 4.2832 10.6546C4.52001 10.9905 4.64726 11.3915 4.64755 11.8025C4.64755 12.6695 4.09555 13.4015 3.32355 13.6795C3.21016 13.7187 3.1156 13.799 3.05856 13.9045C3.00153 14.0101 2.98618 14.1332 3.01555 14.2495C3.1916 14.8704 3.434 15.4705 3.73855 16.0395C3.79834 16.1452 3.89617 16.2241 4.01211 16.2601C4.12806 16.2962 4.25339 16.2867 4.36255 16.2335C4.95755 15.9605 5.70555 15.9695 6.46655 16.4715C6.58355 16.5485 6.69155 16.6565 6.76855 16.7715C7.29555 17.5715 7.28055 18.3515 6.96655 18.9595C6.90899 19.0658 6.89433 19.1901 6.92557 19.3069C6.95681 19.4237 7.0316 19.5241 7.13455 19.5875C7.7965 19.9758 8.50566 20.2772 9.24455 20.4845C9.36156 20.5149 9.48574 20.4993 9.59169 20.4412C9.69764 20.383 9.77737 20.2865 9.81455 20.1715C9.94849 19.7774 10.2023 19.4351 10.5405 19.1925C10.8787 18.9499 11.2843 18.8191 11.7006 18.8185C12.5786 18.8185 13.3186 19.3855 13.5876 20.1715C13.6249 20.2864 13.7047 20.3827 13.8106 20.4408C13.9165 20.499 14.0406 20.5146 14.1576 20.4845C14.8867 20.2794 15.587 19.9827 16.2416 19.6015C16.3451 19.5379 16.4202 19.4369 16.4513 19.3194C16.4824 19.2019 16.4671 19.077 16.4086 18.9705C16.0906 18.3625 16.0716 17.5775 16.5996 16.7755C16.6766 16.6595 16.7846 16.5505 16.9016 16.4735C17.6736 15.9625 18.4286 15.9605 19.0266 16.2435C19.1357 16.2982 19.2616 16.309 19.3784 16.2736C19.4952 16.2383 19.5941 16.1595 19.6546 16.0535C19.9615 15.484 20.2056 14.8828 20.3826 14.2605C20.4127 14.143 20.397 14.0184 20.3387 13.912C20.2804 13.8056 20.1838 13.7253 20.0686 13.6875Z" fill="#344563"/>
</g>
</svg>
